<svg width="165px" height="165px" viewBox="-16.67 0 49.586 49.586" xmlns="http://www.w3.org/2000/svg" fill="#000000"><g id="SVGRepo_bgCarrier" stroke-width="0"></g><g id="SVGRepo_tracerCarrier" stroke-linecap="round" stroke-linejoin="round"></g><g id="SVGRepo_iconCarrier"> <g id="Group_311" data-name="Group 311" transform="translate(-576.764 -141.394)"> <g id="Group_75" data-name="Group 75"> <g id="sekt"> <g id="Group_69" data-name="Group 69"> <path id="Path_52" data-name="Path 52" d="M584.89,147.939c-4.045,0-8.126-1.012-8.126-3.272s4.081-3.273,8.126-3.273,8.126,1.012,8.126,3.273S588.935,147.939,584.89,147.939Zm-6.077-3.272c.428.436,2.468,1.272,6.077,1.272s5.648-.836,6.076-1.272c-.428-.437-2.468-1.273-6.076-1.273S579.241,144.23,578.813,144.667Z" fill="#b1aeaf"></path> </g> <g id="Group_70" data-name="Group 70"> <path id="Path_53" data-name="Path 53" d="M584.894,150.667c-1.891,0-8.06-.2-8.06-2.71h2a.477.477,0,0,0-.1-.3c.326.342,2.531,1.014,6.156,1.014s5.828-.672,6.154-1.014a.477.477,0,0,0-.1.3h2C592.952,150.471,586.784,150.667,584.894,150.667Z" fill="#b1aeaf"></path> </g> <g id="Group_71" data-name="Group 71"> <path id="Path_54" data-name="Path 54" d="M584.89,190.98c-4.045,0-8.126-1.011-8.126-3.272s4.081-3.273,8.126-3.273,8.126,1.012,8.126,3.273S588.935,190.98,584.89,190.98Zm-6.077-3.272c.428.437,2.468,1.272,6.077,1.272s5.648-.835,6.076-1.272c-.428-.437-2.468-1.273-6.076-1.273S579.241,187.271,578.813,187.708Z" fill="#b1aeaf"></path> </g> <g id="Group_72" data-name="Group 72"> <path id="Path_55" data-name="Path 55" d="M584.89,173.789c-5.321,0-8.1-14.652-8.1-29.125h2c0,16.806,3.555,27.125,6.1,27.125s6.1-10.319,6.1-27.125h2C592.993,159.137,590.21,173.789,584.89,173.789Z" fill="#b1aeaf"></path> </g> <g id="Group_73" data-name="Group 73"> <path id="Path_56" data-name="Path 56" d="M586.56,165.032a.97.97,0,0,1-.254-.034,1,1,0,0,1-.713-1.221,69.771,69.771,0,0,0,1.869-12.227,1,1,0,1,1,1.994.147,71.672,71.672,0,0,1-1.93,12.589A1,1,0,0,1,586.56,165.032Z" fill="#b1aeaf"></path> </g> <g id="Group_74" data-name="Group 74"> <path id="Path_57" data-name="Path 57" d="M584.89,187.831a1,1,0,0,1-1-1V172.789a1,1,0,1,1,2,0v14.042A1,1,0,0,1,584.89,187.831Z" fill="#b1aeaf"></path> </g> </g> </g> </g> </g></svg>